<?xml version="1.0" encoding="UTF-8"?>
<svg id="Layer_1" data-name="Layer 1" xmlns="http://www.w3.org/2000/svg" viewBox="0 0 160.8558 48.4425">
  <g id="LuWzaI.tif">
    <g>
      <g>
        <path d="M78.2369,0c1.7101,0,4.707.9368,6.275,2.2775,1.0491.897,1.7597,2.0536,2.0766,3.4082.2215.947.3316,1.8692.3324,2.8685l.0089,10.4273c.001,1.2141.378,2.3135,1.0583,3.2785l.9029,1.2807c.211.2993.2564.8359-.0389,1.0921l-3.825,3.3182c-.4966.4308-1.0703.3544-1.5232-.0523-.7467-.6705-1.409-1.3659-1.9732-2.1963l-.603-.8878c-2.0504,2.0281-3.8034,3.3283-6.7785,3.549-1.2646.0938-2.4652.0913-3.6854-.2187-2.3106-.587-4.0741-2.2221-4.7686-4.5181-.513-1.6961-.566-3.4726-.1738-5.213.7636-3.3879,3.343-5.4919,6.5906-6.4175,1.3193-.376,2.6263-.6115,3.9943-.7625l3.8261-.4223.0006-1.8304c.0002-.5448-.0763-1.0992-.2277-1.6131-.6569-2.2303-3.4648-2.5175-5.2912-1.6115-1.0363.5141-1.6577,1.4352-1.8978,2.5642-.0681.3203-.3765.8739-.7864.8306l-4.9138-.5188c-.6629-.07-.782-.6994-.6806-1.2078.5316-2.6648,2.1545-4.8082,4.576-6.0339,1.6874-.8541,3.4931-1.1908,5.3319-1.3908h2.1934ZM75.5258,23.4092c1.1365.0013,2.1058-.5289,2.853-1.3697,1.8158-2.1771,1.5333-4.5077,1.5541-7.2331-1.835.0004-3.8648.1775-5.4246,1.115-.9174.584-1.5677,1.4338-1.8171,2.5002-.2387,1.0203-.2306,2.071.1126,3.0512.4182,1.1942,1.44,1.935,2.722,1.9365Z"/>
        <path d="M95.3939,40.7022c-8.1166,4.5989-18.2142,7.2297-27.4466,7.6551l-.906.0418c-1.2421.0572-2.4685.0586-3.7106-.0004l-.9041-.0429c-4.1821-.1987-8.3454-.7561-12.4249-1.7498-10.124-2.466-19.462-7.4267-27.1383-14.4243-.286-.2607-.2756-.7406-.0926-.9973.1797-.2521.6441-.4171,1.0135-.205,3.7889,2.1755,7.7348,4.0875,11.8585,5.6511,10.274,3.8957,21.2104,5.8451,32.2172,5.6109,10.5842-.2252,21.0144-2.532,30.7331-6.6107.7028-.2949,1.7294.0839,1.8632.873.0671.3954-.0649.8792-.4093,1.1484-1.4613,1.1423-2.9869,2.106-4.6532,3.0502Z"/>
        <g>
          <path d="M110.6713,27.384c-2.4382-1.2829-5.0057-1.972-7.725-2.1345-3.4619-.2069-6.8106.5447-9.8752,2.1282-.431.2227-1.0083-.3803-1.0099-.788l-.016-4.172c.0837-.6739.1022-1.4052.5136-1.9953l9.9109-14.2139-8.5778-.0068c-.5453-.0268-.9101-.4116-.9114-.9431l.0055-3.6544c.0007-.4885.3935-.8878.9055-.8877l16.4296.0011c.5557,0,.8904.4679.8906.9555l.0012,3.2236c-.1359.4459-.3148.8516-.5967,1.2538l-9.101,12.9851c3.3675-.0231,6.4261.4138,9.3017,2.0062.4932.2806.875.7713.8745,1.3742l-.0036,4.0346c-.0005.5087-.5051.8873-1.0164.8332Z"/>
          <path d="M102.8866,39.6445c.5456-1.4572,1.2571-4.1048,1.0531-5.5784-.1518-1.0966-1.494-1.3527-2.4461-1.4437-2.8075-.2684-6.0222.1382-8.8451.4481-.2712.0298-.5983-.0998-.639-.3797-.0424-.2911.1543-.6109.4034-.7895,3.5232-2.526,8.6443-3.0932,12.8266-2.4249.6869.1098,1.3067.2967,1.9224.5533.4144.1727.6795.5074.7466.9574.1076.7224.1148,1.4232.0265,2.1815-.4804,4.1273-2.3157,8.6642-5.5175,11.4306-.3134.2708-.8776.5305-1.1663.2108-.0848-.0938-.1532-.3891-.1007-.5294l1.736-4.6362Z"/>
        </g>
        <g>
          <path d="M12.9459,0c1.3953.1778,2.7381.382,4.0376.9236,3.454,1.4323,4.67,3.9769,4.6732,7.6305l.0089,10.4308c.001,1.2219.3866,2.3211,1.0701,3.2906l.9093,1.2897c.2135.3028.2274.8301-.0625,1.0812l-3.8337,3.3213c-.4711.4081-1.0633.3386-1.4848-.0513-.626-.579-1.2357-1.1381-1.7242-1.8398l-.8775-1.2605c-2.0208,2.0024-3.7614,3.2989-6.6619,3.5367-1.2463.1021-2.4318.11-3.6356-.168-2.3525-.5432-4.1704-2.1643-4.9041-4.4648-.4137-1.2973-.5317-2.6009-.4216-3.9525.3296-4.0447,3.0399-6.7249,6.852-7.7847,1.2966-.3605,2.5791-.5966,3.9251-.7459l3.8595-.4279-.0051-1.8292c-.0015-.5287-.0746-1.0713-.2134-1.5724-.6068-2.1904-3.2732-2.5352-5.1172-1.7397-1.1372.4906-1.8429,1.4656-2.0922,2.6729-.073.3534-.4128.8603-.8184.8167l-4.8837-.5252c-.6386-.0687-.7738-.6904-.6778-1.1802C1.4116,4.6788,3.1411,2.4771,5.6897,1.2728c1.6378-.7739,3.371-1.0936,5.1359-1.2728h2.1203ZM10.2418,23.4089c1.1226.0075,2.0768-.497,2.8225-1.3102,1.866-2.1786,1.5876-4.5398,1.6069-7.289-1.8147-.0095-3.9271.1755-5.4874,1.1556-.9305.6123-1.5627,1.5057-1.7833,2.6053-.1989.9916-.1812,1.9963.1578,2.9369.4197,1.1643,1.4214,1.893,2.6836,1.9015Z"/>
          <path d="M46.6905,28.0604l-5.0111.0047c-.5078.0005-.918-.4274-.9181-.9326l-.0023-14.1235c-.0003-2.1823.3602-6.2759-2.8092-6.4182-1.741-.0782-2.88.7396-3.325,2.4242-.2545.9634-.3682,1.9218-.3687,2.9446l-.007,15.1277c-.0003.5722-.4115.9821-.9797.9819l-4.8962-.0012c-.5041-.0001-.9502-.3811-.9502-.9112l-.0008-25.3911c0-.5635.3987-.9791.952-.9794l4.6063-.002c.5031-.0002.9379.3862.942.8929l.0273,3.335c.4311-.8404.7222-1.5397,1.2343-2.2221.9196-1.2255,2.191-2.0591,3.7017-2.3721,1.0734-.2201,2.1328-.2272,3.2137-.0321,2.5737.5179,3.851,2.2438,4.9453,4.5589.9017-2.4333,2.8719-4.1161,5.3941-4.5645,3.0054-.5344,6.2642.6326,7.6794,3.3901.9762,1.9021.8164,4.242.8147,6.3215l-.0136,16.9955c-.0005.5608-.4028.9807-.965.9808l-4.8919.0008c-.5614,0-.97-.4195-.9698-.981l.0052-14.0028-.0253-3.3153c-.0041-.5427-.1304-1.0919-.3188-1.5818-.3202-.8325-.9883-1.297-1.8386-1.4776-1.8176-.386-3.5695.664-4.0155,2.5002-.2195.9037-.3051,1.8061-.3055,2.7793l-.005,15.0972c-.0002.4932-.3422.9724-.8987.973Z"/>
        </g>
      </g>
      <g>
        <path d="M160.8558,8.8375v18.5446c-.1879.4175-.5234.6913-1.0243.6906l-4.9008-.0069c-.4301-.0006-.9044-.3596-.9046-.8293l-.0051-16.0652c-.0004-1.3284-.2677-3.418-1.4707-4.1885-1.2595-.8068-2.8801-.5219-3.8633.5802-1.0955,1.2279-1.441,3.4603-1.4418,5.0841l-.0071,14.4417c-.0003.5265-.3944.9753-.9348.9754l-4.9666.001c-.5507.0001-.9276-.4514-.9277-.9875l-.0057-25.3801c-.0001-.5168.4313-.9094.9304-.9098l4.6128-.0033c.4063-.0003.9041.322.9082.7549l.0369,3.9027c.5196-1.0403.917-1.9599,1.593-2.8224.9045-1.1541,2.1134-1.9449,3.5689-2.2145,1.1062-.2049,2.1798-.2214,3.2932-.0079,2.3226.4454,4.2263,2.0788,4.8778,4.3872.3713,1.3156.6315,2.7123.6315,4.0534Z"/>
        <path d="M134.2382,23.6448c-2.2042,3.4138-5.6277,5.1663-9.7179,4.9274-5.2444-.3063-8.6017-4.2257-9.8032-9.0814-.8248-3.3335-.8347-6.8261-.0177-10.1602,1.0722-4.3755,3.9384-8.0912,8.5558-8.9038,1.3899-.2446,2.7322-.2402,4.125.0015,4.4491.7718,7.3316,4.233,8.5214,8.4293,1.3476,4.7529,1.0798,10.5386-1.6634,14.7872ZM128.1988,21.6029c.9957-1.8514,1.1214-4.283,1.1386-6.3392.0202-2.4193-.0462-5.7237-.9644-7.9267-.4893-1.174-1.5108-1.8131-2.7556-1.8812-4.1134-.2249-4.1751,5.4166-4.1743,8.2757.0007,2.4165-.0154,7.9164,2.4425,9.2385,1.571.845,3.4629.2138,4.3132-1.3672Z"/>
      </g>
    </g>
  </g>
</svg>