<?xml version="1.0" encoding="UTF-8"?>
<svg id="Layer_1" data-name="Layer 1" xmlns="http://www.w3.org/2000/svg" viewBox="0 0 160 31.5193">
  <g id="aRi0UE">
    <g>
      <path d="M8.9071,14.1811l-.5405-1.4882c-.1293-.3561-1.2004-.2075-1.7807-.1435l-.0103,8.7351,4.2947.0623.4766-3.8361,3.0183.0154.208,6.0032-14.4123.0059.0725-2.1148,2.0221-.4776-.0112-18.471-2.2443-.3859L.1516,0l14.1331.0229-.3249,5.6954-2.861.0154-.2495-3.608-4.2663.0561.016,8.2229c.4795.0945,1.6975.222,1.7954-.1281l.46-1.6449,2.0156-.0863.0068,5.7287c-.513.2522-1.8143.3353-1.9699-.0929Z"/>
      <path d="M71.8694,31.5047l-6.936.0146-.063-1.4854c-.0151-.3551.7973-.4258,1.5724-.5627l.0039-19.9408c-.8211-.1273-1.5219-.1825-1.7895-.4697-.2687-.2884-.0702-1.5434.3667-1.6024l4.3296-.5847.6742,1.5506c1.9235-1.8683,4.7554-2.2354,6.8423-.6156.8856.6874,1.5329,2.0548,1.7664,3.1893.7435,3.6132,1.0278,10.8876-3.2988,12.4046-1.6156.5665-3.1898.3533-4.9264-.0232l.0277,6.1049c.7495.1169,1.3127.1437,1.5355.3505s.0252,1.059-.1047,1.67ZM74.4273,20.6498c1.0762-2.9599.7238-6.1621.4048-9.1018-.1166-1.0741-.982-1.905-1.7346-2.0469-.7599-.1432-2.601.0776-2.6069,1.0733l-.0614,10.3481c1.1088.4859,3.2865.8553,3.9981-.2728Z"/>
      <path d="M22.9228,23.5018l-6.9603.0454c-.0898-.4709-.1652-1.2993-.0306-1.6215s.8503-.3649,1.5439-.5142l.0268-11.6469-1.8905-.3177.0273-1.7541,4.5551-.6698.596,1.3882c1.7718-1.5396,4.0893-2.0695,6.1771-1.136,1.4827.663,2.2342,2.1674,2.2415,3.8064l.0463,10.3348c.6309.1393,1.4885.1865,1.5897.4977s-.0071.9637-.1005,1.6268l-5.4651-.0408-.0548-12.1728c-.003-.6671-.8882-1.3963-1.4056-1.5077-.6464-.1392-1.9768.1246-2.344.747l-.0139,10.8436,1.4382.3487c.2821.0684.1189,1.0415.0234,1.7429Z"/>
      <path d="M109.979,21.3374c.6744.2058,1.3644.2956,1.5908.5491.2642.2957-.0333,1.3732-.258,1.6463l-6.8217-.013-.0225-1.5933c-.0049-.3491.9326-.3469,1.5418-.5172l.0159-11.6545c-.5938-.1019-1.5613-.1777-1.7543-.5118s-.0702-1.1404.1025-1.5851l4.438-.6301.6147,1.3402c1.3728-1.1531,3.0231-1.7806,4.9273-1.4751,1.7458.2801,3.3923,1.7085,3.4119,3.6843l.1078,10.8632c.821.1407,1.56.2521,1.6374.6296.0895.4369-.2388,1.4698-.634,1.4686l-4.9879-.0158-.0456-11.5843c-.0039-1.0018-.6528-1.9477-1.4427-2.11-.6462-.1328-2.3634.0492-2.3682,1.0007l-.0533,10.5082Z"/>
      <path d="M146.7734,8.6089l.0179,12.6721,1.5145.5956c.3874.1524.004,1.6302-.4034,1.6517l-4.1048.0147-.7125-1.1744c-1.2018,1.0454-2.5221,1.491-4.1997,1.3932-2.0311-.1185-4.1242-1.5252-4.152-3.8141l-.13-10.7178c-1.0011-.0693-1.6109-.0791-1.8114-.3764-.2073-.3075.0629-1.3915.4721-1.4357l4.7709-.5156c.2673.4016.6146,1.3193.6133,1.789l-.0276,10.0284c-.003,1.1082.6152,2.1569,1.5459,2.401.6796.1782,2.467.0394,2.5221-.9897.1947-3.6337.1354-7.3659.0615-10.8538l-1.6409-.2572c-.3682-.0577-.22-1.5189.1837-1.5658l4.9227-.5717c.2605.3467.5571,1.1384.5579,1.7265Z"/>
      <path d="M63.0168,20.5651c.2924.2406.6507,1.116.6795,1.594-2.1176,1.5423-4.8745,2.0791-7.4098,1.1976-1.6048-.5579-2.8653-1.9224-3.5389-3.4981-1.8951-4.433-.8504-11.5709,3.7953-12.7839,1.999-.5219,4.1727-.4197,5.6278,1.0483,2.0465,2.0647,2.5721,5.1297,2.0948,8.0909l-8.1354.1841c-.1264,1.589.4015,3.6484,2.03,4.4992,1.4621.7639,3.1081.2506,4.8567-.3323ZM60.8959,14.1436c-.276-2.428-.668-4.8494-2.4633-5.0035-2.1352-.1833-2.2187,3.417-2.5248,5.2376l4.988-.2341Z"/>
      <path d="M102.3437,20.6205c.3981-.1306,1.0432,1.2229.7391,1.5306-1.1207,1.0803-2.9814,1.5302-4.5882,1.6185-2.7876.1533-5.1409-1.3257-6.2285-3.8885-1.9205-4.5251-.8375-11.6607,3.8662-12.8373,2.0353-.5091,4.3112-.3251,5.7263,1.2633,1.8977,2.13,2.4496,5.1454,1.8555,7.9287l-8.1586.1503c.045,1.6644.4379,3.5324,1.978,4.4536,1.3696.8193,3.2324.3223,4.8102-.2191ZM100.4333,14.1536l-.7726-3.9375c-.5702-.4771-1.1387-.9317-1.6476-1.0658-2.0397-.5377-2.4167,3.5742-2.578,5.2117l4.9982-.2084Z"/>
      <path d="M131.1326,20.5343c.272.2357.636,1.0996.6835,1.6434-2.1354,1.5429-4.9921,2.088-7.5291,1.1331-1.6501-.621-2.8987-2.123-3.5373-3.7421-1.7335-4.3951-.6549-11.436,4.1104-12.545,2.0451-.4759,4.2295-.3054,5.661,1.3331,1.8373,2.1031,2.4138,5.0829,1.8518,7.8669l-8.1274.1679c-.0868,1.7743.4688,3.7921,2.1775,4.576,1.4382.6598,3.0008.171,4.7095-.4333ZM129.0144,14.1922c-.2448-2.1325-.5107-4.7044-2.3396-5.0397-2.1864-.4008-2.378,3.3949-2.6026,5.1809l4.9421-.1412Z"/>
      <path d="M85.8661,10.5292l.0211,10.9137c.6204.1317,1.3258.2454,1.563.4729.2767.2654.0085,1.2191-.1931,1.6168l-6.8575-.0063c-.0511-.621-.1097-1.3009.0225-1.5727s.7239-.3378,1.3835-.5158l.0439-11.5843-1.7606-.4296.0666-1.7348,4.6167-.6518.6318,1.2688c1.0539-.563,5.9167-2.7161,5.5365.1285l-.4878,3.6502-2.6618-.1043-.3548-2.235c-.3988-.0567-1.5708.3797-1.57.7837Z"/>
      <path d="M46.3659,10.5544l.0135,10.8544,1.458.3744c.3464.0889.1369,1.1182-.0006,1.7235l-6.5717.0377c-.4009.0023-.6227-1.1209-.4472-1.4319.1718-.3044.7004-.4529,1.4952-.703l.024-11.6062c-.6176-.1599-1.3462-.3137-1.6714-.506-.3744-.2214-.064-1.6128.4202-1.68l4.225-.5865.5898,1.2287c.8268-.5779,5.7467-2.2078,5.5538-.434l-.4602,4.2313-2.6362-.0528-.4406-2.1567c-.173-.3083-1.5523.2361-1.5517.7073Z"/>
      <path d="M154.9701,10.6848l.0483,10.5102c.0019.4062,1.2528.3435,1.3979.6084.1747.3189.0992.9584-.0356,1.7242l-6.694-.0101c-.3265-.0005-.4265-.9843-.3153-1.2925.1405-.3891.7595-.6422,1.4968-.8269l.0069-11.6438c-.6336-.1216-1.3327-.2101-1.6464-.4128s-.0942-1.3166.0533-1.6542l4.552-.6598.6099,1.2489c1.4506-.6834,2.9619-1.273,4.7267-1.273.699,0,.8891,1.0654.8142,1.608l-.4803,3.4787-2.614-.0854-.4039-2.1177c-.1053-.3968-1.5197.0667-1.5163.7977Z"/>
      <path d="M39.3167,21.2954c.2708.2661.3502,1.4485.1896,2.0198-1.4656.4201-3.1111.588-4.6056.2682-1.3889-.2972-2.3505-1.7085-2.3566-3.1173l-.0465-10.734-1.7176-.352-.0462-2.0818,2.1419-.1945.8873-3.0198,2.7582-.142.0702,3.2917,2.8175.0812-.2673,2.0578-2.5891.3567.0791,10.7398c.0067.907,1.5901.9497,2.6851.8262Z"/>
      <circle cx="158.7455" cy="22.8002" r=".8638"/>
    </g>
  </g>
</svg>