<?xml version="1.0" encoding="UTF-8"?>
<svg id="Layer_1" data-name="Layer 1" xmlns="http://www.w3.org/2000/svg" viewBox="0 0 160 41.8289">
  <g id="PcuCL9.tif">
    <g>
      <g>
        <path d="M19.6329,22.503c-1.6017-.1714-3.1293-.2115-4.7767-.257-.0257,3.4885.0334,6.9424.2799,10.4287.1138,1.6091.3226,3.5556,1.1901,4.9028.4549.7064,1.1235,1.1307,1.9435,1.2754l2.2901.4042c.1028.0181.3437.0976.3939.1842.1741.5049.1918,1.1024-.006,1.6731l-20.8122-.0009c-.1327-.3696-.1064-.7221-.125-1.076-.0229-.4361.124-.7195.5705-.8104l1.8056-.3675c2.5445-.5179,2.9364-3.2285,3.1251-5.4622.1621-1.9183.2562-3.7863.2566-5.7235l.003-14.2377c.0003-1.6182-.0851-3.1606-.2149-4.7647-.1275-1.5759-.4011-3.507-1.4761-4.6985C3.1374,2.9281,1.4352,2.8769.0775,2.6998l-.0775-1.8712c.2551-.0564.453-.0996.7448-.1l15.5773-.0177,16.1762.0335c.0574.229.1092.4469.114.6792l.1401,6.7281.0564,4.1303-1.5279.4453c-.3088.09-.5801-.0789-.6936-.3593l-.7795-1.9262c-.4844-1.197-1.0732-2.2968-1.8455-3.3309-1.0567-1.4149-2.4747-2.4687-4.1945-2.92-.7367-.1933-1.4774-.2485-2.2508-.2524l-6.2945-.0315c-.0675.6392-.1151,1.1873-.1389,1.8261-.1748,4.686-.2515,9.313-.2328,14.0437,1.5159.0033,2.9789-.0498,4.4706-.1571,1.118-.0804,2.0572-.6157,2.7346-1.5044.4486-.6265.8107-1.3063,1.0138-2.0602l.5015-1.8611,1.867-.0577-.0002,13.8143-1.8692-.0649c-.4-1.6239-.7211-3.101-1.8776-4.3703-.5482-.6041-1.2112-.9218-2.0584-1.0125Z"/>
        <path d="M44.2331,41.8289h-3.7215c-.1239-.0476-.2459-.0443-.3917-.0606-4.489-.5035-8.2181-3.1386-10.0753-7.2549-1.6099-3.5679-1.8885-7.8703-1.1661-11.6844.9496-5.014,4.4947-9.3162,9.4641-10.7533,3.0471-.8812,6.2864-.8797,9.3274.0122,4.1525,1.218,7.0413,4.3729,8.2985,8.4562.4255,1.3821.734,2.7624.8163,4.2226.0954,1.6915.0719,3.3318-.1692,5.0129-.3021,2.1061-1.0648,4.0978-2.1856,5.8861-2.1777,3.4745-5.6501,5.5158-9.6793,6.1039-.1786.0261-.3933-.0288-.5175.0594ZM44.5293,39.2126c.885-.5414,1.4936-1.3385,1.9196-2.2392.7818-1.653,1.1363-3.7408,1.286-5.5665.2133-2.6018.2355-5.1677.0639-7.7749-.1447-2.1979-.5185-4.5337-1.4032-6.5393-.4375-.9918-1.0398-1.8549-1.8312-2.5805-.5726-.525-1.2284-.7865-1.9999-.8283-2.2696-.1232-3.4693,1.8221-4.0766,3.7385-.5079,1.6027-.7961,3.2219-.9011,4.9166-.1612,2.6027-.1758,5.1444-.01,7.7527.1106,1.7405.4592,3.3922.9686,5.0396.4631,1.4978,1.3433,3.3266,2.7541,4.123.9785.5523,2.2322.5687,3.2297-.0415Z"/>
      </g>
      <g>
        <g>
          <path d="M126.6185,41.8289h-3.2723c-.1346-.0696-.3009-.0406-.454-.0605-4.1713-.5425-7.8189-2.8381-9.9485-6.4856-.9557-1.6367-1.6494-3.4159-1.9153-5.3106-.2506-1.7858-.2718-3.5341-.114-5.3379.2178-2.4906,1.0569-4.8683,2.364-6.9824,2.9686-4.8012,8.5669-6.8764,14.0336-6.0312,2.746.4246,5.117,1.8883,6.7051,4.1529,1.6425,2.3422,2.2939,5.1822,2.5126,8.0037.0443.5718.0457,1.1217-.0221,1.6934l-17.0074.0606c.0142,2.8903.4549,5.4423,1.9438,7.9221,1.5063,1.9666,3.2205,3.3967,5.7378,3.7764,1.1852.1788,2.3441.1874,3.537.0457,1.2878-.153,2.45-.5947,3.5332-1.2892.3461-.2219.7015-.4353,1.0876-.5866.3589.2217.7259.5928.7559,1.0469.0162.2444-.2523.5819-.4293.7759-.9586,1.0505-2.0039,1.979-3.2406,2.7071-1.6641.9798-3.5015,1.5786-5.4104,1.8406-.1604.022-.2997.0099-.3966.0587ZM127.8693,22.8562l-.1825-2.9899c-.14-1.1591-.3159-2.2715-.6643-3.3823-.4982-1.5923-1.6461-3.3807-3.5796-2.6308-2.549.9886-3.4758,5.4215-3.8109,7.8317-.0659.4739-.0884.9176-.0549,1.3813l8.2921-.2099Z"/>
          <path d="M149.2039,41.8289h-3.7215c-1.9064-.2581-3.5168-.5487-5.3775-1.0399-.6361-.1679-1.2096-.3662-1.7748-.6551l-.2028-8.555c.4888-.2865,1.0138-.3779,1.5787-.3385,1.126,2.8887,2.89,6.7476,6.2507,7.4699.9277.1994,1.8869.2388,2.8239.0582.9404-.1812,1.773-.7335,2.3715-1.4541.66-.7947.8878-1.7776.8777-2.7954-.0189-1.9097-1.2658-2.8968-2.8414-3.7135-1.9809-1.0267-3.7313-1.5355-5.7148-2.4807-1.2722-.6063-2.354-1.447-3.2348-2.5468-.6959-.869-1.1376-1.8565-1.3564-2.9524-.4901-2.4553-.1395-4.9201,1.3249-6.9878,1.2846-1.8138,3.0909-3.098,5.2207-3.7502,1.387-.4247,2.7644-.6311,4.2292-.6515,2.6171-.0364,6.316.4256,8.7465,1.5347l.1889,7.6722-.9849.3502c-.2798.0995-.5478-.048-.6575-.3164l-.7235-1.7692c-.4183-1.0229-.9354-1.9517-1.6184-2.814-1.132-1.4291-2.7973-2.2629-4.6324-2.2514-1.0784.0068-2.0204.4979-2.6948,1.3066-.8073.9681-.9966,2.0681-.8798,3.3182.1338,1.4326,1.4922,2.5106,2.6498,3.1939,2.7269,1.6097,5.7612,2.3244,8.1873,4.1954,1.4651,1.1299,2.525,2.7575,2.7079,4.6392.1011,1.0396.031,2.0693.0135,3.1147-.0105.6269-.2376,1.2142-.445,1.7982-.7201,2.0279-2.1065,3.6643-3.979,4.7371-1.4962.8572-3.1418,1.3763-4.8586,1.6097-.5118.0696-1.0174-.079-1.4736.0734Z"/>
        </g>
        <g>
          <path d="M94.6653,41.8289h-4.5556c-.1733-.1032-.379-.0316-.59-.0572-2.3566-.2858-4.6785-.6778-7.0318-1.1987l.196-16.5743c.0629-5.3187-.0151-10.5929-.1864-15.8901-.0363-1.1209-.2735-2.1381-.7978-3.0813-.2742-.4932-.6945-.8108-1.2442-.948l-1.4316-.3575c-.5729-.143-.4422-.9202-.3156-1.4088L90.8053.0021c.0679-.013.2154.0371.2341.0862.0141.0368.0417.1404.0415.1881l-.0415,7.9656-.0086,5.0932,1.0497-.4467c1.054-.4485,2.1236-.7864,3.2757-.9028,1.1249-.1136,2.2185-.2037,3.3556-.0855,3.2912.342,6.1664,2.4879,7.8135,5.3171.9197,1.5798,1.5911,3.2856,1.8512,5.1184.2704,1.9057.316,3.782.1417,5.7006-.1563,1.7202-.5714,3.3639-1.1895,4.9581-1.3283,3.426-3.9489,6.1146-7.3158,7.5604-1.5279.6561-3.106,1.0641-4.7641,1.2143-.2156.0195-.4329-.03-.5835.0598ZM98.6206,33.7213c.4985-1.5876.8542-3.1701.981-4.8481.1386-1.8348.1267-3.6121-.0299-5.4365-.1594-1.8576-.9502-4.586-2.0994-6.0935-.7231-.9731-1.6659-1.6722-2.8316-2.0453-1.2177-.1573-2.4424-.0369-3.5899.4045-.1077,5.5709-.1347,11.0325-.0035,16.562l.1582,6.6683c.0066.2796.1711.4935.4417.5169.5161.0446,1.0255.0979,1.5402.0695,1.0352-.057,1.9589-.453,2.7155-1.1361,1.3139-1.1863,2.1904-2.9823,2.7177-4.6616Z"/>
          <path d="M56.7844,39.3903l1.668-.3472c1.4459-.3009,1.9803-1.6405,2.0975-2.9894.1258-1.4482.2029-2.8335.2036-4.3016l.0043-9.9145c.0005-1.1878-.0785-2.3076-.2245-3.4762-.1401-1.1216-.5917-2.4111-1.8236-2.6691l-1.914-.401c-.0462-.5684-.253-1.306.3558-1.4279l11.5747-2.3173c.2359-.0472.4192-.048.6575-.0458l-.2034,5.9855c.5781-1.0152,1.1033-1.9522,1.8242-2.837,1.1856-1.4549,2.7053-2.5237,4.5127-3.0591,1.3956-.3592,3.7396-.307,4.9479.4979.1975.1315.2338.3468.1547.5718-.8986,2.5559-1.8265,5.0408-2.8795,7.5722-.5122-.1614-.9312-.3493-1.389-.5602-.9692-.4465-1.9694-.7579-3.0502-.799-1.2517-.0476-2.4947.2231-3.5329.868-.381.2367-.5824.5362-.5977.9975-.1424,4.2814-.1494,8.5179.0485,12.7936.0427.9221.1014,1.767.2122,2.6687.1394,1.1336.5724,2.5213,1.8442,2.7839.9331.1926,1.8132.2803,2.7885.3627.0333.5837.0191,1.1575-.0191,1.7658l-8.4455.0265-8.5046-.0359c-.0716-.0003-.1892-.0263-.2314-.0543-.0528-.035-.1128-.1841-.111-.2622l.0322-1.3964Z"/>
        </g>
      </g>
    </g>
  </g>
</svg>