<?xml version="1.0" encoding="UTF-8"?>
<svg id="Layer_1" data-name="Layer 1" xmlns="http://www.w3.org/2000/svg" viewBox="0 0 160 159.9439">
  <defs>
    <style>
      .cls-1 {
        fill: #fff;
      }
    </style>
  </defs>
  <path d="M160,79.9719c0,44.1673-35.8172,79.9719-80,79.9719S0,124.1392,0,79.9719,35.8172,0,80,0s80,35.8047,80,79.9719ZM107.4181,130.7967c13.1254-2.2904,22.3771-12.2625,23.7288-25.3333l.0066-50.7413c-.7759-7.4676-3.9488-14.1285-9.5233-18.9291-4.3874-3.8129-9.2306-5.8782-15.0975-6.7324l-52.9526-.0085c-12.8721,1.6335-22.7698,11.3494-24.5548,24.1882l-.0209,52.7818c1.2535,13.1086,11.7051,23.5477,24.8198,24.8133l53.5939-.0386Z"/>
  <g>
    <path class="cls-1" d="M107.4181,130.7967l-53.5939.0386c-13.1147-1.2655-23.5663-11.7046-24.8198-24.8133l.0209-52.7818c1.785-12.8387,11.6827-22.5546,24.5548-24.1882l52.9526.0085c5.8669.8542,10.7101,2.9195,15.0975,6.7324,5.5746,4.8007,8.7474,11.4615,9.5233,18.9291l-.0066,50.7413c-1.3517,13.0708-10.6035,23.0429-23.7288,25.3333ZM55.8995,121.9583l48.1534-.0246c9.405-.8668,16.4987-7.4363,17.889-16.8049l.0017-50.3845c-1.3518-8.5596-7.2562-14.723-15.7667-16.4672l-51.9187-.0129c-9.1125,1.4181-15.5508,8.6889-16.3512,17.8848l-.022,47.9263c.7463,3.75,1.4725,7.2153,3.8907,10.1261,4.1624,5.0102,7.313,6.5909,14.1238,7.7569Z"/>
    <path d="M55.8995,121.9583c-6.8108-1.166-9.9614-2.7467-14.1238-7.7569-2.4182-2.9107-3.1444-6.376-3.8907-10.1261l.022-47.9263c.8004-9.1959,7.2387-16.4667,16.3512-17.8848l51.9187.0129c8.5105,1.7442,14.4148,7.9076,15.7667,16.4672l-.0017,50.3845c-1.3903,9.3686-8.484,15.938-17.889,16.8049l-48.1534.0246ZM105.7246,46.9112c-3.4463.8497-5.058,4.3072-4.169,7.6777.8248,3.1274,4.3142,4.928,7.5082,3.9796,3.1382-.9318,5.092-4.3403,4.1364-7.4749-.961-3.1523-4.1183-5.0101-7.4756-4.1824ZM108.0041,79.9912c0-15.4146-12.5004-27.9106-27.9204-27.9106s-27.9204,12.496-27.9204,27.9106,12.5004,27.9106,27.9204,27.9106,27.9204-12.496,27.9204-27.9106Z"/>
    <path class="cls-1" d="M108.0041,79.9912c0,15.4146-12.5004,27.9106-27.9204,27.9106s-27.9204-12.496-27.9204-27.9106,12.5004-27.9106,27.9204-27.9106,27.9204,12.496,27.9204,27.9106ZM98.1165,80.0861c0-10.0035-8.1123-18.1129-18.1192-18.1129s-18.1192,8.1094-18.1192,18.1129,8.1123,18.1129,18.1192,18.1129,18.1192-8.1094,18.1192-18.1129Z"/>
    <path class="cls-1" d="M105.7246,46.9112c3.3573-.8277,6.5147,1.0301,7.4756,4.1824.9556,3.1346-.9982,6.5431-4.1364,7.4749-3.194.9484-6.6834-.8522-7.5082-3.9796-.8889-3.3705.7227-6.8281,4.169-7.6777Z"/>
    <ellipse cx="79.9973" cy="80.0861" rx="18.1192" ry="18.1129"/>
  </g>
</svg>