<?xml version="1.0" encoding="UTF-8"?>
<svg id="Layer_1" data-name="Layer 1" xmlns="http://www.w3.org/2000/svg" viewBox="0 0 160 18.3287">
  <path d="M0,17.9497v-1.6298c.6235-.3589,1.7733.1204,2.2831-.3545l.0035-13.6869c-.7278-.5931-1.6778-.0809-2.2866-.4642V.1844l9.6109-.0021.0129,1.7634-1.6122.01c-.3548.0022-.9641.2147-.9626.6414l.0222,6.2933c1.3574-1.2712,2.5275-2.4149,3.7099-3.7124l1.7137-1.8806c.153-.2395.3689-.6514.3009-.8611-.0583-.1798-.5008-.4108-.7088-.4225l-1.6527-.0927.0126-1.7315,8.5073-.0125.0252,1.7168c-2.0481.0709-4.0505,1.7837-5.3253,3.1971l-1.5079,1.6719,1.3461,2.0417,3.9843,6.4705c.4508.732.9338,1.1259,2.0633.8434l.0155,1.8539-9.1145-.0083.0176-1.7674,1.5165-.0257c.0966-.0016.3359-.1135.3969-.1706.0601-.0563.0232-.3011-.0522-.4222l-3.4665-5.5677-1.8132,1.7193.0333,4.4006,2.5529.0881-.0508,1.762-9.5753-.0306Z"/>
  <path d="M88.1964,17.8654l-11.6335.1175-.0364-1.7604,2.3402-.1004.0057-13.9655c-.8057-.1883-1.4519-.1953-2.3365-.2212l.0156-1.7553,9.3637.0095c1.0669.0011,2.1417.1247,3.1912.2955,5.7721.9394,7.4163,7.2261,5.7919,12.1862-.9531,2.9103-3.4933,5.1618-6.7019,5.1942ZM89.8123,12.7756l.2769-1.8306c.2996-1.9808.0952-6.1423-1.2251-7.6742-1.4731-1.7093-5.2138-1.6766-5.2148-.6186l-.0129,13.0041c-.0002.211.4036.5553.5934.5508l2.6348-.0624c1.2864-.0305,2.6833-1.621,2.9477-3.369Z"/>
  <path d="M68.1734,10.4074c-.3746,3.9237-3.4131,7.0806-7.2875,7.7332-1.4284.2406-3.0436.2708-4.4429-.0296-2.5169-.5402-4.695-2.0796-5.9017-4.3151-1.852-3.4309-1.4175-7.698,1.1168-10.5566C54.3725.1777,56.6155-.1836,60.4303.0632c1.6762.1084,3.0776,1.021,4.3888,1.9613.2853.2046.5205.5135.7649.7604,1.9961,2.0154,2.8804,4.5754,2.5894,7.6225ZM59.7452,16.5683c1.0211-.2182,1.7076-1.042,2.201-1.8923.8681-1.496,1.0194-4.779.8995-6.5299-.1305-1.9062-.3303-3.8224-1.5481-5.3863-.6289-.8077-1.7091-1.3138-2.7175-1.2219-3.3468.3051-3.7972,4.5698-3.756,7.2802.0261,1.7152.0093,3.3638.6393,4.947.8024,2.0167,1.7871,3.3361,4.2818,2.8032Z"/>
  <path d="M107.0685,14.5201l-.7423-1.8777-5.5565.0166c-.6456.754-.9869,2.006-.6136,2.9429.2777.697,1.2855.5678,2.0034.5792l.0109,1.7872-7.0764.0022-.012-1.7679c1.704.3086,2.8671-2.3479,3.3678-3.5572l1.4936-3.6075L103.8142.0879c.7853-.0651,1.6513-.0746,2.3364-.0053l.9318,2.2818,3.6947,8.8478,1.6677,4.0238c.334.8058.9488,1.1415,2.0308.89l.0138,1.8434h-8.6824s-.0107-1.7297-.0107-1.7297l1.8108-.1489c-.1716-.5745-.317-1.01-.5387-1.5706ZM105.5552,10.6301l-.9264-2.1625-1.0973-2.5814-2.098,4.748,4.1217-.0041Z"/>
  <path d="M157.0798,3.6072l-3.9366,6.6688.0346,5.8666,2.7246.06-.0238,1.7699-10.1546-.0083c-.1569-.4589-.2667-1.0335-.0518-1.4292.3756-.6914,2.0445-.087,2.7108-.5217l-.0223-5.6796-1.9151-2.8896-2.6028-4.2479c-.5252-.8571-.9712-1.4866-2.2551-1.1883l.0397-1.8255h9.1318s.0178,1.7664.0178,1.7664l-1.3164.0271c-.1086.0022-.3577.0882-.4102.166-.07.1037-.0185.4334.0608.5623l3.1199,5.0687,2.4102-4.2954c.118-.2102.1066-.7633-.0175-.9482-.124-.1848-.5365-.4918-.7638-.506l-1.4763-.0921c-.0236-.5482-.0028-1.0887.0933-1.742l7.5232-.0083-.0901,1.7475c-1.129.0899-2.2024.6153-2.8301,1.6787Z"/>
  <path d="M50.7483.1755c.1596.4937.1633,1.1678.0849,1.7088-2.4144.358-2.7218,1.6741-3.517,3.5656l-5.3383,12.6972c-.9031.1532-1.8474.1553-2.6638-.0223l-1.5469-3.9112-.7723-1.8984-.5685-1.6597-3.0211-7.6105c-.3567-.8986-.9909-1.2867-2.1679-1.0113-.1118-.5706-.1252-1.2206-.019-1.8522l9.0267.0024.0175,1.755c-.8282.0161-1.3636.0352-2.0566.3266l2.3357,5.91,1.6412,4.0067,1.865-4.4917,1.5712-3.7986c.2192-.8305-.2491-1.7247-1.1482-1.8397l-1.1962-.1531.0184-1.7083,7.4553-.0153Z"/>
  <path d="M144.21,11.089c.0938,2.7567-.2758,4.0652-.1992,6.8794l-16.4455.0033c-.0897-.5333-.0934-1.1205-.0599-1.7529l2.1484-.0778c.3315-.3869.4343-1.2003.4334-1.7768l-.0184-11.3661c-.0011-.6596-.5575-1.0386-1.1029-1.0387l-1.4908-.0002.0115-1.7753,9.921-.0038.0292,1.7627-1.9083.0337c-.2306.0041-.8469.2979-.8471.5193l-.0126,12.8255c-.0002.2297.308.8345.5664.8413.7842.0207,2.0176.0516,2.9-.012,1.7317-.1248,3.173-1.3659,3.7609-2.9243.2622-.695.3955-1.2823.6362-2.0892l1.6777-.0482Z"/>
  <path d="M30.5286,17.9682l-9.8849.0031c-.1246-.4741-.1169-1.1254.0428-1.7086l2.4766-.1535.0042-13.9547c-.7544-.1832-1.5395-.1826-2.371-.2205-.398-.2293-.3359-1.2159-.0092-1.7401l9.7343-.0164.0186,1.7704c-.9629.0081-1.7063-.0008-2.6034.2251l.0059,13.9366,2.5758.1157.0105,1.7428Z"/>
  <path d="M126.0616,17.9705l-9.8916-.0023c-.0472-.5825-.0313-1.1657.0801-1.7104l2.486-.1579.0061-13.9203c-.7698-.1946-1.5135-.1988-2.3256-.285-.4327-.1204-.3899-1.2812-.085-1.7046l9.7713-.0108-.0007,1.7536-1.4562.0279c-.3441.0066-.7631.1042-1.1369.2596l.0062,13.8892,2.4119.1348c.2319.4511.2425,1.1465.1345,1.7261Z"/>
</svg>