<?xml version="1.0" encoding="UTF-8"?>
<svg id="Layer_1" data-name="Layer 1" xmlns="http://www.w3.org/2000/svg" viewBox="0 0 160 159.9439">
  <defs>
    <style>
      .cls-1 {
        fill: #fff;
      }
    </style>
  </defs>
  <path d="M160,79.9719c0,44.1673-35.8172,79.9719-80,79.9719S0,124.1392,0,79.9719,35.8172,0,80,0s80,35.8047,80,79.9719ZM55.6251,44.2372c0-6.0957-4.9432-11.0372-11.041-11.0372s-11.041,4.9415-11.041,11.0372,4.9432,11.0372,11.041,11.0372,11.041-4.9415,11.041-11.0372ZM96.064,79.7874c5.9726.5796,9.0301,4.8011,10.2081,9.941l-.0125,34.7261,18.0958-.0052.0025-43.5424c-1.5838-11.5573-11.5142-18.2766-22.7335-18.0091-7.722.1841-14.8563,2.0728-19.4508,8.8911l-.0446-7.9801-18.0785.0058.0008,60.6367,18.0621.0021.2229-33.615c.046-6.939,7.1061-11.6937,13.7277-11.0511ZM53.7644,63.8137h-18.4459v60.6373h18.4459v-60.6373Z"/>
  <g>
    <path class="cls-1" d="M96.064,79.7874c-6.6216-.6426-13.6817,4.1121-13.7277,11.0511l-.2229,33.615-18.0621-.0021-.0008-60.6367,18.0785-.0058.0446,7.9801c4.5945-6.8183,11.7288-8.707,19.4508-8.8911,11.2193-.2675,21.1497,6.4518,22.7335,18.0091l-.0025,43.5424-18.0958.0052.0125-34.7261c-1.1781-5.1399-4.2356-9.3614-10.2081-9.941Z"/>
    <rect class="cls-1" x="35.3186" y="63.8137" width="18.4459" height="60.6373"/>
    <circle class="cls-1" cx="44.5841" cy="44.2372" r="11.041"/>
  </g>
</svg>