<?xml version="1.0" encoding="UTF-8"?>
<svg id="Layer_1" data-name="Layer 1" xmlns="http://www.w3.org/2000/svg" viewBox="0 0 160 157.5652">
  <g id="XEOU86.tif">
    <g>
      <g>
        <g>
          <path d="M87.9642,90.3782l46.0435-30.9608c5.8467-3.9315,13.6688-3.4777,19.2082.6464,5.562,4.1409,8.0597,11.3252,6.1482,18.0926-1.9788,7.0058-8.3119,11.9816-15.6526,12.2421l-55.7473-.0203Z"/>
          <path d="M71.8954,90.3721l-55.7812-.0741C6.9365,90.2858-.1562,82.1671.0026,73.2501c.1082-6.072,3.466-11.4422,8.4877-14.2912,5.5556-3.1519,12.3855-2.9599,17.617.5647l45.7882,30.8485Z"/>
        </g>
        <g>
          <path d="M90.4082,85.0647l23.6004-53.7209c2.7497-6.2591,9.3088-10.0216,15.9762-9.7521,6.7348.2723,12.6654,4.5414,15.0851,10.8874,2.7326,7.2776.1249,15.4432-6.3144,19.8614l-48.3472,32.7243Z"/>
          <path d="M82.9021,25.116c.3014-1.5163,1.1118-2.6999,2.4223-3.4337l2.8747-1.6099c.1164-.0652.2944-.3495.3319-.4754.2102-.7044-2.1426-.8476-2.6809-.8474l-4.3033.0017c-.3688-3.1835.1617-6.2447,1.4994-9.0936,3.6749-7.8263,12.7638-11.5483,20.8476-8.7105,9.2864,3.26,13.8479,13.6513,9.8786,22.7205l-23.7487,54.2619-7.1416-49.852c-.1466-1.0232-.1017-1.9204.0199-2.9616Z"/>
        </g>
        <g>
          <path d="M69.8852,77.8752l-24.0116-55.0792c-2.7907-6.4014-.4989-14.0457,4.5379-18.4988,5.3028-4.6883,12.8169-5.6329,19.1618-2.2573,5.8061,3.089,9.7439,9.8016,8.766,16.6479l-8.4541,59.1874Z"/>
          <path d="M69.4623,85.0367L20.8372,52.0211c-7.5329-5.1147-9.1155-15.6085-4.0979-23.0257,3.4759-5.1383,9.4066-7.9097,15.65-7.2917,5.7656.5707,11.1781,4.2634,13.6031,9.7951l23.47,53.538Z"/>
        </g>
      </g>
      <g>
        <polygon points="57.3707 156.8809 22.2397 124.8031 22.2267 155.6457 10.8079 155.6436 10.8053 99.3765 45.951 131.4848 45.9623 100.6043 57.3689 100.614 57.3707 156.8809"/>
        <g>
          <path d="M149.2951,155.3582c-2.859,1.0739-5.681,1.9178-8.7232,2.1307-17.1812,1.2027-33.1039-11.9555-32.9246-29.8105.0691-6.8751,2.7321-13.3872,7.2896-18.507,5.2936-5.9468,12.6778-9.5657,20.618-10.3448,4.7088-.462,9.3451.1418,13.7356,2.0117l-.0093,11.2554c-5.2648-3.3458-11.5527-4.1096-17.6466-1.7486-4.9737,1.927-9.2723,6.2515-11.0812,11.6566-3.7671,11.257,3.4484,23.2026,15.223,25.056,4.6543.7326,9.3864-.26,13.5031-2.8598l.0156,11.1603Z"/>
          <path d="M95.6791,126.2166c5.241,2.3036,8.9755,6.6485,9.4427,12.4152.323,3.9864-.7446,7.809-3.1339,11.0033-2.8766,3.6456-7.1854,6.0119-11.9407,6.0179l-26.1208.0331-.0005-55.1173,23.3516.014c3.0239.0018,5.8071.9273,8.3457,2.3951,3.7288,2.3128,6.0904,6.0835,6.4351,10.4665.2985,3.7961-.4331,7.2832-3.1468,10.0373-.9942,1.009-2.0733,1.8245-3.2326,2.7349ZM83.9452,123.225c4.0568-.0036,7.1766-3.3531,7.1322-7.2043-.0454-3.9381-3.1947-7.1254-7.2137-7.1228l-8.4614.0054.0005,14.3293,8.5425-.0076ZM86.2666,147.3643c4.4146-.0253,7.6593-4.0493,7.4775-8.2502-.1822-4.2074-3.5944-7.6852-7.9171-7.6692l-10.4096.0385.0012,15.9431,10.8481-.0623Z"/>
        </g>
      </g>
    </g>
  </g>
</svg>