<?xml version="1.0" encoding="UTF-8"?>
<svg id="Layer_1" data-name="Layer 1" xmlns="http://www.w3.org/2000/svg" viewBox="0 0 160 159.9439">
  <defs>
    <style>
      .cls-1 {
        fill: #fff;
      }
    </style>
  </defs>
  <path d="M160,79.9719c0,44.1673-35.8172,79.9719-80,79.9719S0,124.1392,0,79.9719,35.8172,0,80,0s80,35.8047,80,79.9719ZM68.5276,133.6899c17.5134.8831,34.1233-11.9991,34.2876-29.6418l.3614-38.8018c6.0893,5.8105,16.1685,8.7667,24.0146,7.9182l-.0015-17.8783c-12.8894,1.8702-24.7673-11.9836-24.1574-24.4685l-18.0207.0002-.2291,72.2768c-.0233,7.3424-7.6504,12.6904-14.081,12.8586-9.0557.2367-16.4563-7.2604-15.1355-16.6946,1.2664-9.0455,10.4229-14.8268,19.1166-12.0318l.0025-18.365-4.7071-.3422c-1.1378-.0827-2.8198.1811-4.0677.3259-11.8367,1.3734-21.6806,9.4242-25.9364,19.6372-4.8936,11.7437-2.7441,24.8642,5.3025,33.9959,6.0313,6.8447,13.9437,10.7418,23.2512,11.2112Z"/>
  <path class="cls-1" d="M68.5276,133.6899c-9.3076-.4693-17.2199-4.3664-23.2512-11.2112-8.0466-9.1318-10.1961-22.2522-5.3025-33.9959,4.2557-10.213,14.0997-18.2637,25.9364-19.6372,1.2479-.1448,2.9299-.4086,4.0677-.3259l4.7071.3422-.0025,18.365c-8.6938-2.7949-17.8502,2.9863-19.1166,12.0318-1.3208,9.4342,6.0798,16.9313,15.1355,16.6946,6.4306-.1681,14.0577-5.5162,14.081-12.8586l.2291-72.2768,18.0207-.0002c-.6099,12.4849,11.268,26.3387,24.1574,24.4685l.0015,17.8783c-7.8461.8485-17.9253-2.1077-24.0146-7.9182l-.3614,38.8018c-.1643,17.6427-16.7742,30.525-34.2876,29.6418Z"/>
</svg>