<?xml version="1.0" encoding="UTF-8"?>
<svg id="Layer_1" data-name="Layer 1" xmlns="http://www.w3.org/2000/svg" viewBox="0 0 160 58.7187">
  <g id="IwnRdZ">
    <g>
      <path d="M107.2439,58.2072l-4.7694.1405-.4846-1.1641c-2.3192,2.1605-6.0097,2.0526-8.3074-.4124-2.5854-2.7738-2.7442-7.2295-.4633-10.2669,2.1875-2.913,6.2714-3.3485,8.8247-.9348l.2194-.8981c.0448-.1833.5739-.3357.8215-.3312l4.148.0745.0109,13.7926ZM102.2552,51.3574c0-1.5359-1.2451-2.7811-2.7811-2.7811s-2.7811,1.2451-2.7811,2.7811,1.2451,2.7811,2.7811,2.7811,2.7811-1.2451,2.7811-2.7811Z"/>
      <path d="M114.4416,50.2573l-.0844,7.9971-5.1403.0011.0352-13.8096,4.8412-.0868.445,1.2501c1.3117-1.3956,3.1172-1.9099,4.9724-1.4278,1.6786.4362,3.3314,2.0848,3.3507,4.1503l.0932,9.9547-5.1008-.0027-.0646-7.8108c-.008-.9609-.6409-1.7176-1.5254-1.7963-.6751-.06-1.8118.6072-1.8221,1.5807Z"/>
      <path d="M81.7901,50.2048l-.1582,8.074-5.0363.0133-.0081-13.8922,4.8575-.0469.44,1.2425c1.3306-1.4206,3.1531-1.9574,5.2534-1.3204,1.4427.4376,3.0629,2.149,3.0825,4.1497l.0967,9.8533-5.0796.0152-.0999-7.9345c-.0105-.831-.7193-1.5589-1.4971-1.6762-.6108-.0921-1.8309.5064-1.8508,1.5223Z"/>
      <path d="M145.801,53.6298l4.1789,1.5837c-1.1719,2.5389-3.8835,3.4354-6.5604,3.5025-4.1563.1042-7.27-2.7277-7.4536-6.8596-.2054-4.6216,3.3775-8.1815,8.0553-7.8284,4.3069.3252,7.0972,4.078,6.4189,8.5681l-9.4517.0841c.2204,1.1646.9376,1.7578,1.8929,1.9811.9594.2243,1.8169-.2041,2.9196-1.0315ZM145.5875,49.6572c-.5846-1.7971-1.5572-1.7233-2.6595-1.7126-.7786.0076-1.5047.5507-1.9581,1.6921,1.608.1242,3.0792.1345,4.6176.0204Z"/>
      <path d="M64.2828,48.586l-.0093,9.6741-5.0352.0353-.0204-9.6553-1.8233-.2061-.0684-3.853,1.8706-.2981c-.01-2.022.5244-4.2853,2.3536-5.5296,1.9019-1.2938,4.2676-1.4633,6.3792-.6211l-.0451,4.0386c-1.0075-.0564-1.6128-.0982-2.464.0067-.5874.0724-1.0476,1.151-1.1712,2.1141l3.4427.1153.0111,4.0573-3.4201.1217Z"/>
      <path d="M131.4647,53.917c1.2177.3351,2.3355-.0068,3.5955-.5059l-.0201,4.5875c-3.1745,1.3103-6.7932.8645-9.055-1.8048-2.1778-2.5701-2.2566-6.5718-.2624-9.2766,2.1844-2.9628,6.092-3.6049,9.3548-2.1909l-.0114,4.5117c-1.3553-.4606-2.423-.7877-3.6278-.4508-1.1466.3207-1.8551,1.3553-1.9197,2.3394-.075,1.1442.4805,2.3869,1.9461,2.7903Z"/>
      <rect x="69.4172" y="44.3689" width="5.1057" height="13.9311"/>
      <circle cx="71.965" cy="40.3345" r="2.8287"/>
      <g>
        <path d="M80.7998,35.309l-8.6591.0287-.0619-13.9977c-.0081-1.8329-1.2293-3.063-2.9278-3.0666-1.3376-.0028-2.9999,1.1447-3.0135,2.9183l-.1083,14.1377-8.6886-.0052-.0009-35.3241,8.6055.0148.0726,12.9568c3.267-3.2974,8.1897-3.6797,11.679-.9268,2.051,1.6181,2.8102,4.1205,3.0899,6.6493l.0131,16.6149Z"/>
        <path d="M46.3926,35.3711l-.3964-1.9854c-4.4992,4.4694-12.183,2.9165-15.7394-2.3643-3.1376-4.659-3.1849-10.8679-.0899-15.5793,3.4485-5.2496,10.9785-7.2678,15.848-2.5925l.2265-2.0202,8.2684.0358.0017,24.4425-8.1191.0634ZM46.3127,23.1166c0-2.7674-2.2434-5.0108-5.0108-5.0108s-5.0108,2.2434-5.0108,5.0108,2.2434,5.0108,5.0108,5.0108,5.0108-2.2434,5.0108-5.0108Z"/>
        <path d="M29.7486,10.9406l-13.8472,33.4799-9.2206-.0154,3.7074-8.8749L0,10.8922l9.3934-.021,5.5666,14.1157,5.6323-14.0928c2.9223-.0622,5.601-.0778,9.1563.0465Z"/>
        <path d="M108.7298,23.1191c0,7.2101-5.8449,13.055-13.055,13.055s-13.055-5.8449-13.055-13.055,5.8449-13.055,13.055-13.055,13.055,5.8449,13.055,13.055ZM100.5565,23.1167c0-2.6956-2.1852-4.8807-4.8807-4.8807s-4.8807,2.1852-4.8807,4.8807,2.1852,4.8807,4.8807,4.8807,4.8807-2.1852,4.8807-4.8807Z"/>
        <path d="M136.3447,23.1201c0,7.2099-5.8448,13.0548-13.0548,13.0548s-13.0548-5.8448-13.0548-13.0548,5.8448-13.0548,13.0548-13.0548,13.0548,5.8448,13.0548,13.0548ZM128.171,23.1151c0-2.6954-2.1851-4.8805-4.8805-4.8805s-4.8805,2.1851-4.8805,4.8805,2.1851,4.8805,4.8805,4.8805,4.8805-2.1851,4.8805-4.8805Z"/>
        <polygon points="150.8412 22.2058 140.5588 22.1466 149.6858 .0187 160 .0329 150.8412 22.2058"/>
        <circle cx="143.1506" cy="30.0512" r="5.7404"/>
      </g>
    </g>
  </g>
</svg>