<?xml version="1.0" encoding="UTF-8"?>
<svg id="Layer_1" data-name="Layer 1" xmlns="http://www.w3.org/2000/svg" viewBox="0 0 160 159.9439">
  <defs>
    <style>
      .cls-1 {
        fill: #fff;
      }
    </style>
  </defs>
  <path d="M160,79.9719c0,44.1673-35.8172,79.9719-80,79.9719S0,124.1392,0,79.9719,35.8172,0,80,0s80,35.8047,80,79.9719ZM89.2353,114.6883l9.6304-.2883,5.3379-.3185,5.1438-.4238c7.0008-.5768,15.2205-1.3148,17.6849-8.9309,1.1143-3.4435,1.5765-6.9512,1.8152-10.5574l.3555-5.3711c.3849-5.8158.422-11.6227.0439-17.5048l-.277-4.3102c-.1917-2.9825-.595-5.899-1.0309-8.7845-.8995-5.9547-5.0413-10.1705-10.9224-11.1446-2.1175-.3507-4.2609-.7685-6.4316-.9332l-3.9149-.2971-6.0203-.3522-6.6133-.2997-27.4146-.0682-4.296.2713c-1.944.1228-3.7577.1189-5.6577.2548l-4.9884.3568-3.9408.353c-4.7811.4283-10.2264,1.6979-13.1056,5.7129-2.0806,2.9015-2.6786,6.3532-2.976,9.8307l-.3916,4.5777-.3504,8.1434c-.1534,3.5637-.1755,7.1169-.0076,10.6795l.3824,8.1145c.3245,6.8855.9688,15.7062,8.6355,18.341,3.5137,1.2076,7.1278,1.6084,10.8352,1.9157l5.1484.4268,5.3334.3172,10.1253.2952c5.9152.1725,11.7915.1758,17.8674-.0061Z"/>
  <g>
    <path class="cls-1" d="M89.2353,114.6883c-6.0759.1819-11.9522.1786-17.8674.0061l-10.1253-.2952-5.3334-.3172-5.1484-.4268c-3.7074-.3074-7.3215-.7082-10.8352-1.9157-7.6667-2.6348-8.311-11.4555-8.6355-18.341l-.3824-8.1145c-.1679-3.5626-.1457-7.1159.0076-10.6795l.3504-8.1434.3916-4.5777c.2975-3.4774.8954-6.9292,2.976-9.8307,2.8792-4.0151,8.3245-5.2846,13.1056-5.7129l3.9408-.353,4.9884-.3568c1.9001-.1359,3.7137-.132,5.6577-.2548l4.296-.2713,27.4146.0682,6.6133.2997,6.0203.3522,3.9149.2971c2.1707.1647,4.3141.5825,6.4316.9332,5.8811.9741,10.0229,5.1898,10.9224,11.1446.4359,2.8855.8392,5.802,1.0309,8.7845l.277,4.3102c.3781,5.8821.3411,11.6891-.0439,17.5048l-.3555,5.3711c-.2387,3.6062-.7009,7.1138-1.8152,10.5574-2.4644,7.6161-10.6841,8.3541-17.6849,8.9309l-5.1438.4238-5.3379.3185-9.6304.2883ZM96.2107,79.8239l-26.0923-15.0211.0069,30.2524,26.0854-15.2314Z"/>
    <polygon points="96.2107 79.8239 70.1253 95.0553 70.1184 64.8029 96.2107 79.8239"/>
  </g>
</svg>